<svg width="32" height="32" viewBox="0 0 32 32" fill="none" xmlns="http://www.w3.org/2000/svg">
<path d="M1.66667 16.0003C1.66667 8.08433 8.08374 1.6665 15.9997 1.66632C23.9158 1.66632 30.3337 8.08422 30.3337 16.0003C30.3335 23.9162 23.9157 30.3333 15.9997 30.3333C8.08385 30.3331 1.66685 23.9161 1.66667 16.0003ZM11.2926 13.9593C10.9024 14.3497 10.9025 14.9828 11.2926 15.3734C11.6831 15.7638 12.3162 15.7638 12.7067 15.3734L14.9997 13.0804L14.9997 21.3333C14.9997 21.8855 15.4475 22.3331 15.9997 22.3333C16.552 22.3333 16.9997 21.8856 16.9997 21.3333L16.9997 13.0804L19.2926 15.3734C19.6831 15.7638 20.3162 15.7638 20.7067 15.3734C21.0971 14.9828 21.0972 14.3498 20.7067 13.9593L16.7067 9.95929C16.3162 9.56919 15.6831 9.56905 15.2926 9.95929L11.2926 13.9593Z" fill="#F97316"/>
</svg>
