<svg width="20" height="20" viewBox="0 0 20 20" fill="none" xmlns="http://www.w3.org/2000/svg">
<path d="M10 10.0001L10.0084 10.0001M13.5356 6.46424C17.4408 10.3695 19.0237 15.1182 17.0711 17.0708C15.1185 19.0235 10.3698 17.4405 6.46452 13.5353C2.55927 9.63006 0.976361 4.88133 2.92898 2.9287C4.8816 0.976083 9.63034 2.559 13.5356 6.46424ZM13.5356 13.5353C9.63036 17.4406 4.88162 19.0235 2.929 17.0709C0.976376 15.1183 2.55929 10.3695 6.46453 6.46428C10.3698 2.55904 15.1185 0.976127 17.0711 2.92875C19.0238 4.88137 17.4408 9.63011 13.5356 13.5353ZM10.4167 10.0001C10.4167 10.2302 10.2302 10.4167 10 10.4167C9.76992 10.4167 9.58337 10.2302 9.58337 10.0001C9.58337 9.76994 9.76992 9.58339 10 9.58339C10.2302 9.58339 10.4167 9.76994 10.4167 10.0001Z" stroke="#D036FA" stroke-width="1.5" stroke-linecap="round" stroke-linejoin="round"/>
</svg>
