<svg width="24" height="24" viewBox="0 0 24 24" fill="none" xmlns="http://www.w3.org/2000/svg">
<path fill-rule="evenodd" clip-rule="evenodd" d="M14.9585 16.0643C11.433 13.9993 9.08678 10.9715 8.14538 9.36523C7.7181 9.61135 7.30857 9.92497 6.92931 10.3093C5.25598 12.004 4.16665 13.0827 2.33331 13.3333C2.73065 17.2813 4.92531 20.3413 8.58531 21.3827C9.42265 21.6213 10.324 21.4267 11.004 20.8827C12.3367 19.8177 14.0477 18.0373 14.9585 16.0643Z" fill="#CA8A04" fill-opacity="0.3"/>
<path d="M8.12799 9.37598C8.77866 10.4306 9.60932 11.5573 10.6667 12.6666C12.0987 14.1666 13.592 15.264 14.9386 16.0613" stroke="#CA8A04" stroke-width="1.5" stroke-linecap="round" stroke-linejoin="round"/>
<path d="M21.6667 2L13.8347 9.832" stroke="#CA8A04" stroke-width="1.5" stroke-linecap="round" stroke-linejoin="round"/>
<path d="M13.8346 9.83202C18.0453 13.5254 13.732 18.7027 11.004 20.8827C10.324 21.4267 9.42265 21.6214 8.58531 21.3827C4.92531 20.3414 2.73065 17.2814 2.33331 13.3334C4.16665 13.0827 5.25598 12.004 6.92931 10.3094C9.00931 8.20135 12 8.22135 13.8346 9.83202Z" stroke="#CA8A04" stroke-width="1.5" stroke-linecap="round" stroke-linejoin="round"/>
</svg>
