<svg width="24" height="24" viewBox="0 0 24 24" fill="none" xmlns="http://www.w3.org/2000/svg">
<path d="M5.56415 6.33331L8.65216 2.82663C9.18816 2.21329 10.1388 2.21331 10.6655 2.83997L13.6615 6.33331" stroke="#EF4444" stroke-width="1.5" stroke-linecap="round" stroke-linejoin="round"/>
<path d="M15.5892 3.01331L18.4359 6.33329" stroke="#EF4444" stroke-width="1.5" stroke-linecap="round" stroke-linejoin="round"/>
<path opacity="0.3" d="M18.4357 6.33325L17.7997 18.4799C17.7251 19.8934 16.5544 20.9999 15.1371 20.9999H8.86507C7.44641 20.9999 6.27706 19.8932 6.20239 18.4799L5.56641 6.33325H18.4357Z" fill="#EF4444"/>
<path d="M18.4357 6.33325L17.7997 18.4799C17.7251 19.8934 16.5544 20.9999 15.1371 20.9999H8.86507C7.44641 20.9999 6.27706 19.8932 6.20239 18.4799L5.56641 6.33325H18.4357Z" stroke="#EF4444" stroke-width="1.5" stroke-linecap="round" stroke-linejoin="round"/>
<path d="M9.83337 10.3333L10.1667 16.9999" stroke="#EF4444" stroke-width="1.5" stroke-linecap="round" stroke-linejoin="round"/>
<path d="M14.1667 10.3333L13.8334 16.9999" stroke="#EF4444" stroke-width="1.5" stroke-linecap="round" stroke-linejoin="round"/>
</svg>
