<svg width="20" height="20" viewBox="0 0 20 20" fill="none" xmlns="http://www.w3.org/2000/svg">
<path d="M10.5089 2.62333L17.5444 6.24556C18.2255 6.59667 18.2255 7.57 17.5444 7.92111L10.5089 11.5433C10.1889 11.7078 9.80999 11.7078 9.4911 11.5433L2.45554 7.92111C1.77442 7.57 1.77442 6.59667 2.45554 6.24556L9.4911 2.62333C9.8111 2.45889 10.19 2.45889 10.5089 2.62333Z" fill="#B9FF9D" fill-opacity="0.3"/>
<path d="M10.5089 2.62333L17.5444 6.24556C18.2255 6.59667 18.2255 7.57 17.5444 7.92111L10.5089 11.5433C10.1889 11.7078 9.80999 11.7078 9.4911 11.5433L2.45554 7.92111C1.77442 7.57 1.77442 6.59667 2.45554 6.24556L9.4911 2.62333C9.8111 2.45889 10.19 2.45889 10.5089 2.62333Z" stroke="#2EA200" stroke-width="1.5" stroke-linecap="round" stroke-linejoin="round"/>
<path d="M18.0556 7.08331C17.8656 7.90554 17.7022 8.99665 17.7433 10.2778C17.7733 11.2044 17.9033 12.0133 18.0556 12.6733" stroke="#2EA200" stroke-width="1.5" stroke-linecap="round" stroke-linejoin="round"/>
<path d="M4.7222 12.8372V15.5556C4.7222 16.7822 7.08553 17.7778 9.99998 17.7778C12.9144 17.7778 15.2778 16.7822 15.2778 15.5556V12.8372" stroke="#2EA200" stroke-width="1.5" stroke-linecap="round" stroke-linejoin="round"/>
</svg>
