<svg width="24" height="24" viewBox="0 0 24 24" fill="none" xmlns="http://www.w3.org/2000/svg">
<path d="M16.8 3.6H7.2" stroke="#A8A29E" stroke-width="2" stroke-linecap="round" stroke-linejoin="round"/>
<path d="M16.8 20.4H7.2" stroke="#A8A29E" stroke-width="2" stroke-linecap="round" stroke-linejoin="round"/>
<path d="M18 7.2H6C4.0152 7.2 2.4 8.8152 2.4 10.8V13.2C2.4 15.1848 4.0152 16.8 6 16.8H18C19.9848 16.8 21.6 15.1848 21.6 13.2V10.8C21.6 8.8152 19.9848 7.2 18 7.2ZM16.8 13.2H7.2C6.5364 13.2 6 12.6624 6 12C6 11.3376 6.5364 10.8 7.2 10.8H16.8C17.4636 10.8 18 11.3376 18 12C18 12.6624 17.4636 13.2 16.8 13.2Z" fill="#A8A29E"/>
</svg>
