<svg width="14" height="14" viewBox="0 0 14 14" fill="none" xmlns="http://www.w3.org/2000/svg">
<path fill-rule="evenodd" clip-rule="evenodd" d="M7.00004 1.16669C7.23941 1.16671 7.45448 1.31297 7.54247 1.53558L8.93666 5.0626L12.4645 6.45756C12.6871 6.54557 12.8333 6.76065 12.8333 7.00002C12.8333 7.23939 12.6871 7.45447 12.4645 7.54249L8.93666 8.93739L7.54248 12.4645C7.45448 12.6871 7.23941 12.8334 7.00004 12.8334C6.76067 12.8334 6.54557 12.6871 6.45754 12.4645L5.06259 8.93747L1.53546 7.54247C1.31287 7.45444 1.16666 7.23937 1.16666 7.00002C1.16666 6.76067 1.31287 6.5456 1.53546 6.45757L5.06259 5.0626L6.45754 1.53549C6.54557 1.31289 6.76067 1.16666 7.00004 1.16669Z" fill="#D6D3D1"/>
</svg>
