<svg width="20" height="20" viewBox="0 0 20 20" fill="none" xmlns="http://www.w3.org/2000/svg">
<path d="M10 8.05557C11.6876 8.05557 13.0556 6.68755 13.0556 5.00001C13.0556 3.31248 11.6876 1.94446 10 1.94446C8.31248 1.94446 6.94446 3.31248 6.94446 5.00001C6.94446 6.68755 8.31248 8.05557 10 8.05557Z" fill="#CBB014" fill-opacity="0.3"/>
<path d="M10 8.05557C11.6876 8.05557 13.0556 6.68755 13.0556 5.00001C13.0556 3.31248 11.6876 1.94446 10 1.94446C8.31248 1.94446 6.94446 3.31248 6.94446 5.00001C6.94446 6.68755 8.31248 8.05557 10 8.05557Z" stroke="#CBB014" stroke-width="1.5" stroke-linecap="round" stroke-linejoin="round"/>
<path d="M15.2911 17.24C16.2467 16.9389 16.7489 15.8834 16.3433 14.9678C15.2656 12.5334 12.8333 10.8334 10 10.8334C7.16666 10.8334 4.73444 12.5334 3.65666 14.9678C3.25111 15.8845 3.75333 16.9389 4.70888 17.24C6.06999 17.6689 7.87111 18.0556 10 18.0556C12.1289 18.0556 13.93 17.6689 15.2911 17.24Z" stroke="#CBB014" stroke-width="1.5" stroke-linecap="round" stroke-linejoin="round"/>
</svg>
